<?xml version="1.0" encoding="UTF-8"?>
<svg xmlns="http://www.w3.org/2000/svg" xmlns:xlink="http://www.w3.org/1999/xlink" width="876.5pt" height="372.4pt" viewBox="0 0 876.5 372.4" version="1.1">
<defs>
<clipPath id="clip1">
  <path d="M 512 0 L 876.5 0 L 876.5 187 L 512 187 Z M 512 0 "/>
</clipPath>
<clipPath id="clip2">
  <path d="M 569 191 L 820 191 L 820 372.398438 L 569 372.398438 Z M 569 191 "/>
</clipPath>
</defs>
<g id="surface1">
<g clip-path="url(#clip1)" clip-rule="nonzero">
<path style=" stroke:none;fill-rule:evenodd;fill:rgb(0%,44.309998%,41.575623%);fill-opacity:1;" d="M 749.148438 167.273438 C 747.921875 157.898438 753.28125 130.003906 755.996094 120.265625 C 758.03125 113 760.304688 107.023438 762.925781 100.433594 C 764.488281 96.496094 770.160156 85.53125 772.371094 83.339844 C 775.371094 86.453125 780.222656 96.398438 782.410156 101.550781 C 791.664063 123.347656 795.726563 148.53125 795.996094 172.984375 Z M 592.632813 173.097656 C 592.804688 156.003906 594.960938 137.804688 599.148438 122.277344 C 601.175781 114.761719 603.433594 108.035156 606.304688 101.316406 C 608.503906 96.167969 613.28125 86.410156 616.238281 83.339844 C 621.789063 88.839844 630.382813 111.582031 632.699219 120.539063 C 635.222656 130.296875 640.753906 157.835938 639.464844 167.1875 Z M 662.71875 165.308594 C 662.460938 153.257813 664.085938 138.925781 665.550781 127.058594 C 668.300781 104.75 673.527344 82.824219 681.210938 62.21875 C 683.203125 56.855469 691.140625 38.75 694.308594 35.570313 C 695.671875 36.9375 700.34375 45.90625 701.535156 48.472656 C 708.3125 63.121094 712.941406 76.824219 716.886719 93.109375 C 721.628906 112.6875 726.335938 145.136719 725.898438 165.308594 C 698.453125 163.664063 690.128906 163.699219 662.71875 165.308594 Z M 647.992188 97.59375 L 641.660156 84.257813 C 638.628906 78.253906 634.257813 71.148438 630.359375 65.949219 C 628.855469 63.941406 627.363281 62.1875 625.933594 60.316406 C 624.636719 58.621094 617.632813 50.988281 616.238281 50.171875 L 603.460938 63.933594 C 594.339844 76.390625 588.488281 85.964844 582.371094 102.144531 C 573.816406 124.800781 569.390625 149.378906 569.328125 176.460938 L 540.671875 181.152344 C 536.277344 181.898438 514.222656 185.234375 512.074219 186.378906 C 518.480469 186.769531 527.628906 185.839844 534.277344 185.550781 C 619.308594 181.828125 701.175781 181.671875 786.363281 183.265625 C 808.695313 183.683594 831.65625 184.5625 854.027344 185.535156 C 860.773438 185.828125 870.046875 186.773438 876.539063 186.378906 C 874.378906 185.226563 852.570313 181.9375 848.210938 181.191406 L 819.285156 176.460938 C 819.203125 141.242188 810.570313 101.339844 791.933594 73.617188 L 785.296875 64.121094 C 782.65625 60.496094 775.589844 52.65625 772.371094 50.171875 C 770.980469 50.988281 763.980469 58.621094 762.679688 60.316406 C 761.285156 62.140625 759.949219 63.742188 758.402344 65.757813 C 754.695313 70.582031 749.789063 78.667969 746.953125 84.257813 C 745.816406 86.496094 744.714844 88.582031 743.683594 90.753906 C 742.648438 92.941406 741.835938 95.464844 740.621094 97.59375 C 739.234375 93.03125 738.195313 87.910156 736.90625 83.289063 C 733.105469 69.691406 728.285156 56.074219 722.445313 43.59375 C 717.339844 32.679688 709.785156 19.042969 702.609375 9.894531 L 695.597656 1.152344 C 694.90625 0.304688 695.164063 0.488281 694.308594 -0.0546875 L 688.164063 7.015625 C 684.714844 11.574219 681.984375 15.183594 678.859375 20.222656 C 666.4375 40.273438 658.308594 59.8125 651.78125 83.027344 C 650.453125 87.757813 649.410156 92.9375 647.992188 97.59375 Z M 647.992188 97.59375 "/>
</g>
<g clip-path="url(#clip2)" clip-rule="nonzero">
<path style=" stroke:none;fill-rule:evenodd;fill:rgb(96.09375%,50.976563%,12.156677%);fill-opacity:1;" d="M 616.238281 322.105469 C 618.121094 320.644531 619.398438 319.394531 621.078125 317.289063 C 621.914063 316.238281 622.617188 315.824219 623.585938 314.785156 C 626.242188 311.9375 632.007813 304.074219 634.289063 300.660156 C 636.859375 296.828125 639.179688 292.496094 641.621094 288.128906 L 648.078125 274.679688 C 652.40625 293.742188 658.640625 312.734375 666.175781 328.84375 C 671.703125 340.664063 681.453125 358.003906 690.074219 367.5 C 691.320313 368.871094 692.984375 371.28125 694.308594 372.332031 C 697.761719 369.589844 707.164063 355.921875 709.703125 352.144531 C 723.699219 331.3125 734.695313 300.394531 740.53125 274.679688 L 746.992188 288.125 C 752.367188 297.722656 757.734375 306.542969 764.871094 314.609375 L 772.371094 322.105469 C 773.574219 321.484375 776.570313 318.015625 777.753906 316.820313 C 790.976563 303.5 799.828125 286.394531 806.859375 268.523438 C 814.53125 249.007813 820.753906 214.96875 819.128906 191.285156 L 795.960938 191.183594 C 796.191406 210.585938 794.632813 228.386719 790.382813 246.292969 C 787.84375 256.996094 783.359375 270.167969 778.246094 279.542969 L 772.371094 288.949219 C 769.339844 285.628906 763.886719 274.304688 761.96875 269.546875 C 754.304688 250.515625 749.734375 227.660156 749.058594 206.65625 C 748.898438 201.625 749.273438 196.53125 749.09375 191.390625 C 747.554688 190.992188 727.683594 190.996094 725.652344 191.316406 C 725.496094 198.683594 726.109375 205.878906 725.785156 213.183594 C 724.144531 250.175781 717.5625 289.132813 702.214844 322.238281 L 694.308594 336.707031 L 692.164063 333.332031 C 672.496094 298.425781 664.648438 253.914063 662.84375 213.5 C 662.507813 206.015625 663.203125 198.789063 662.96875 191.308594 L 639.492188 191.199219 C 639.085938 215.042969 639.535156 222.5 634.054688 246.464844 C 632.242188 254.386719 629.632813 262.199219 626.753906 269.320313 C 624.804688 274.132813 619.3125 285.621094 616.238281 288.949219 L 610.484375 279.757813 C 596.804688 254.867188 592.261719 219.773438 592.671875 191.164063 L 569.429688 191.199219 C 568.933594 217.683594 572.988281 246.074219 581.660156 268.28125 C 585.570313 278.292969 590.367188 289.417969 596.179688 297.964844 C 600.738281 304.671875 605.03125 310.953125 610.695313 316.652344 C 611.886719 317.855469 615.046875 321.488281 616.238281 322.105469 Z M 616.238281 322.105469 "/>
</g>
<path style=" stroke:none;fill-rule:evenodd;fill:rgb(0%,44.309998%,41.575623%);fill-opacity:1;" d="M 35.421875 151.132813 C 52.613281 152.042969 60.726563 160.722656 59.730469 177.703125 C 53.503906 175.3125 46.660156 173.945313 39.199219 173.777344 C 14.523438 173.21875 0.0976563 188.53125 0.0976563 206.085938 C 0.0976563 221.109375 11.570313 234.324219 30.519531 235.148438 C 39.566406 235.539063 52.90625 231.078125 60.335938 222.089844 L 60.335938 232.449219 C 67.902344 232.425781 75.46875 232.425781 83.035156 232.449219 L 83.035156 176.550781 C 83.253906 150.507813 69.765625 137.523438 42.574219 137.601563 C 24.503906 138.148438 12.121094 146.097656 5.4375 161.453125 C 14.152344 153.796875 24.136719 150.53125 35.421875 151.132813 Z M 294.496094 151.132813 C 311.683594 152.042969 319.789063 160.722656 318.800781 177.703125 C 312.574219 175.3125 305.730469 173.945313 298.265625 173.777344 C 273.589844 173.21875 259.164063 188.53125 259.164063 206.085938 C 259.164063 221.109375 270.640625 234.324219 289.585938 235.148438 C 298.632813 235.539063 311.972656 231.078125 319.402344 222.089844 L 319.402344 232.449219 C 326.96875 232.425781 334.539063 232.425781 342.105469 232.449219 L 342.105469 176.550781 C 342.324219 150.507813 328.835938 137.523438 301.644531 137.601563 C 283.574219 138.148438 271.195313 146.097656 264.503906 161.453125 C 273.21875 153.796875 283.203125 150.53125 294.496094 151.132813 Z M 319.40625 190.984375 L 319.101563 214.3125 C 314.386719 218.179688 308.253906 220.523438 300.683594 220.652344 C 289.003906 220.847656 283.226563 215.199219 283.773438 204.421875 C 284.328125 193.566406 291.40625 187.074219 304.230469 187.324219 C 311.242188 187.460938 315.777344 188.277344 319.40625 190.984375 Z M 353.765625 142.46875 L 376.15625 142.46875 L 376.15625 154.734375 C 384.179688 145.296875 393.746094 140.5625 404.851563 140.5625 C 410.746094 140.5625 415.871094 141.746094 420.195313 144.113281 C 424.546875 146.480469 428.101563 150.058594 430.855469 154.851563 C 434.914063 150.058594 439.296875 146.480469 443.976563 144.113281 C 448.65625 141.746094 453.660156 140.5625 458.992188 140.5625 C 465.746094 140.5625 471.460938 141.890625 476.171875 144.574219 C 480.851563 147.261719 484.34375 151.1875 486.65625 156.382813 C 488.34375 160.191406 489.171875 166.398438 489.171875 174.96875 L 489.171875 232.355469 L 464.828125 232.355469 L 464.828125 181.0625 C 464.828125 172.140625 463.996094 166.398438 462.3125 163.828125 C 460.058594 160.453125 456.566406 158.75 451.886719 158.75 C 448.480469 158.75 445.246094 159.757813 442.230469 161.777344 C 439.238281 163.828125 437.046875 166.800781 435.714844 170.699219 C 434.382813 174.625 433.730469 180.800781 433.730469 189.257813 L 433.730469 232.355469 L 409.386719 232.355469 L 409.386719 183.167969 C 409.386719 174.449219 408.941406 168.792969 408.078125 166.28125 C 407.222656 163.742188 405.890625 161.835938 404.054688 160.597656 C 402.246094 159.355469 399.757813 158.75 396.648438 158.75 C 392.886719 158.75 389.511719 159.730469 386.519531 161.691406 C 383.496094 163.683594 381.367188 166.511719 380.0625 170.238281 C 378.761719 173.960938 378.109375 180.136719 378.109375 188.738281 L 378.109375 232.355469 L 353.765625 232.355469 Z M 208.203125 232.355469 L 208.203125 158.488281 L 186.097656 158.488281 L 186.097656 141.105469 L 255.839844 141.105469 L 255.839844 158.488281 L 232.800781 158.488281 L 232.800781 232.355469 Z M 177.265625 232.355469 L 153.539063 232.355469 L 153.539063 186.546875 C 153.539063 176.847656 153.019531 170.582031 152.011719 167.753906 C 150.972656 164.898438 149.328125 162.703125 147.015625 161.117188 C 144.703125 159.527344 141.9375 158.75 138.703125 158.75 C 134.546875 158.75 130.824219 159.875 127.535156 162.125 C 124.214844 164.378906 121.960938 167.378906 120.746094 171.074219 C 119.507813 174.796875 118.902344 181.667969 118.902344 191.710938 L 118.902344 232.355469 L 95.171875 232.355469 L 95.171875 142.46875 L 117.171875 142.46875 L 117.171875 155.660156 C 125.050781 145.585938 134.953125 140.5625 146.929688 140.5625 C 152.183594 140.5625 157.003906 141.515625 161.363281 143.390625 C 165.746094 145.296875 169.039063 147.691406 171.261719 150.609375 C 173.515625 153.550781 175.074219 156.871094 175.941406 160.597656 C 176.835938 164.320313 177.265625 169.628906 177.265625 176.558594 Z M 60.335938 190.984375 L 60.035156 214.3125 C 55.316406 218.179688 49.183594 220.523438 41.617188 220.652344 C 29.9375 220.847656 24.15625 215.199219 24.707031 204.421875 C 25.257813 193.566406 32.339844 187.074219 45.164063 187.324219 C 52.167969 187.460938 56.707031 188.277344 60.335938 190.984375 Z M 60.335938 190.984375 "/>
</g>
</svg>
