<svg width="686.7" height="91.703" viewBox="0 0 686.7 91.703" xmlns="http://www.w3.org/2000/svg"><g id="svgGroup" stroke-linecap="round" fill-rule="evenodd" font-size="9pt" stroke="#f5cb4c" stroke-width="0.25mm" fill="#f5cb4c" style="stroke:#f5cb4c;stroke-width:0.25mm;fill:#f5cb4c"><path d="M 221.5 20.1 L 215.6 20.1 L 215.6 71.5 L 221.9 71.5 L 221.9 42.3 A 27.865 27.865 0 0 1 222.422 36.749 C 222.888 34.457 223.666 32.415 224.756 30.622 A 16.419 16.419 0 0 1 225.65 29.3 A 12.117 12.117 0 0 1 233.359 24.617 A 18.76 18.76 0 0 1 236.9 24.3 C 244.207 24.3 247.97 28.282 248.19 36.247 A 27.285 27.285 0 0 1 248.2 37 L 248.2 71.5 L 254.4 71.5 L 254.4 40 C 254.4 35.2 255.65 31.383 258.15 28.55 A 12.217 12.217 0 0 1 265.116 24.636 A 18.163 18.163 0 0 1 268.7 24.3 A 16.665 16.665 0 0 1 273.463 24.921 C 278.221 26.342 280.6 30.201 280.6 36.5 L 280.6 71.5 L 286.9 71.5 L 286.9 34.8 A 21.421 21.421 0 0 0 286.413 30.08 C 285.94 27.988 285.124 26.182 283.963 24.662 A 12.363 12.363 0 0 0 282.15 22.75 A 16.835 16.835 0 0 0 272.843 18.831 A 22.269 22.269 0 0 0 270.4 18.7 A 21.707 21.707 0 0 0 263.205 19.829 C 259.281 21.2 256.168 23.82 253.867 27.689 A 23.628 23.628 0 0 0 253.3 28.7 C 252.367 25.567 250.617 23.117 248.05 21.35 C 245.483 19.583 242.333 18.7 238.6 18.7 A 21.488 21.488 0 0 0 234.027 19.163 A 15.57 15.57 0 0 0 228.8 21.3 A 20.751 20.751 0 0 0 224.979 24.546 C 223.951 25.644 222.965 26.896 222.02 28.303 A 36.931 36.931 0 0 0 221.5 29.1 L 221.5 20.1 Z M 482.9 20.1 L 474.5 20.1 L 445.8 45.2 L 445.8 0.3 L 439.8 0.3 L 439.8 71.5 L 445.8 71.5 L 445.8 52 L 456 43.3 L 476.5 71.5 L 484.4 71.5 L 460.9 39 L 482.9 20.1 Z M 547.7 0.3 L 541.5 0.3 L 541.5 71.5 L 547.7 71.5 L 547.7 44.4 C 547.7 38.4 549.017 33.517 551.65 29.75 A 12.782 12.782 0 0 1 560.022 24.453 A 20.176 20.176 0 0 1 563.9 24.1 A 17.555 17.555 0 0 1 569.283 24.854 C 573.069 26.074 575.48 28.774 576.516 32.953 A 22.302 22.302 0 0 1 577.1 38.3 L 577.1 71.5 L 583.4 71.5 L 583.4 37.5 A 28.525 28.525 0 0 0 582.916 32.07 C 582.512 29.991 581.856 28.141 580.948 26.522 A 14.67 14.67 0 0 0 578.85 23.65 A 14.457 14.457 0 0 0 572.355 19.728 C 570.314 19.109 567.996 18.8 565.4 18.8 C 558.033 18.8 552.496 21.759 548.788 27.678 A 25.337 25.337 0 0 0 547.6 29.8 C 547.657 27.587 547.689 20.132 547.698 7.437 A 10769.303 10769.303 0 0 0 547.7 0.3 Z M 151.6 20.1 L 145.9 20.1 L 145.9 29.8 A 21.28 21.28 0 0 0 141.56 23.595 C 138.188 20.332 133.801 18.7 128.4 18.7 C 121.533 18.7 116.017 21.133 111.85 26 A 25.065 25.065 0 0 0 106.573 36.599 C 105.924 39.284 105.6 42.217 105.6 45.4 C 105.6 52.35 107.229 58.047 110.486 62.493 A 22.193 22.193 0 0 0 111.65 63.95 C 115.683 68.583 121.1 70.9 127.9 70.9 A 21.698 21.698 0 0 0 135.372 69.683 C 139.928 68.023 143.371 64.661 145.7 59.6 L 145.7 68.2 A 35.305 35.305 0 0 1 145.361 73.266 C 145.11 74.994 144.719 76.559 144.189 77.961 A 14.637 14.637 0 0 1 141.85 82.1 A 11.537 11.537 0 0 1 136.901 85.546 C 135.595 86.042 134.124 86.391 132.488 86.593 A 29.364 29.364 0 0 1 128.9 86.8 A 25.158 25.158 0 0 1 123.523 86.274 C 117.952 85.051 114.777 81.693 114 76.2 L 107.7 76.2 A 17.008 17.008 0 0 0 108.927 81.648 A 14.123 14.123 0 0 0 113.7 87.65 C 116.776 89.915 120.767 91.23 125.672 91.595 A 39.483 39.483 0 0 0 128.6 91.7 A 33.11 33.11 0 0 0 137.702 90.56 C 146.967 87.906 151.6 80.619 151.6 68.7 L 151.6 20.1 Z M 202.9 61.5 L 202.9 33.5 A 16.326 16.326 0 0 0 202.276 28.858 A 12.043 12.043 0 0 0 197.85 22.5 C 194.483 19.967 189.867 18.7 184 18.7 C 179.244 18.7 175.258 19.546 172.044 21.238 A 16.812 16.812 0 0 0 169.1 23.2 C 165.5 26.2 163.567 30.467 163.3 36 L 169.3 36 A 19.775 19.775 0 0 1 169.953 32.442 C 170.338 31.106 170.864 29.931 171.532 28.919 A 9.825 9.825 0 0 1 173.35 26.85 C 175.211 25.259 177.737 24.311 180.929 24.008 A 25.043 25.043 0 0 1 183.3 23.9 C 186.056 23.9 188.394 24.227 190.313 24.881 A 10.986 10.986 0 0 1 193.3 26.4 C 195.182 27.784 196.282 29.994 196.602 33.032 A 18.83 18.83 0 0 1 196.7 35 A 11.792 11.792 0 0 1 196.591 36.67 C 196.368 38.22 195.805 39.297 194.9 39.9 A 8.039 8.039 0 0 1 194.165 40.289 A 9.476 9.476 0 0 1 193.8 40.45 A 28.242 28.242 0 0 1 192.999 40.77 A 24.105 24.105 0 0 1 192.65 40.9 A 6.143 6.143 0 0 1 192.39 40.987 C 192.088 41.082 191.719 41.177 191.282 41.272 A 21.915 21.915 0 0 1 191.15 41.3 A 46.175 46.175 0 0 1 190.694 41.394 C 190.26 41.481 189.881 41.549 189.558 41.599 A 15.323 15.323 0 0 1 189.55 41.6 A 21.986 21.986 0 0 1 189.181 41.653 C 188.774 41.709 188.238 41.773 187.574 41.847 A 134.888 134.888 0 0 1 187.55 41.85 A 579.78 579.78 0 0 0 186.906 41.922 C 186.38 41.981 185.923 42.033 185.535 42.078 A 182.846 182.846 0 0 0 185.35 42.1 A 35.128 35.128 0 0 1 184.866 42.153 C 184.322 42.209 183.6 42.275 182.7 42.35 A 330.827 330.827 0 0 0 181.85 42.422 C 181.05 42.491 180.4 42.55 179.9 42.6 C 174.084 43.209 169.596 44.646 166.437 46.91 A 13.392 13.392 0 0 0 160.8 58.5 A 16.678 16.678 0 0 0 161.375 63 A 12.136 12.136 0 0 0 165.25 69.1 A 14.824 14.824 0 0 0 170.756 72.008 C 172.768 72.603 175.049 72.9 177.6 72.9 A 25.481 25.481 0 0 0 186.045 71.57 C 190.572 69.989 194.224 66.999 197 62.6 C 197 64.509 197.184 66.15 197.551 67.523 A 9.724 9.724 0 0 0 198.3 69.5 A 4.234 4.234 0 0 0 200.694 71.538 C 201.523 71.846 202.526 72 203.7 72 C 205.5 72 207.167 71.733 208.7 71.2 L 208.7 66.4 A 8.503 8.503 0 0 1 207.17 66.665 A 10.425 10.425 0 0 1 206.3 66.7 A 6.078 6.078 0 0 1 205.424 66.641 C 204.738 66.541 204.215 66.312 203.855 65.955 A 1.874 1.874 0 0 1 203.85 65.95 C 203.352 65.452 203.069 64.922 203.001 64.358 A 2.215 2.215 0 0 1 203 64.35 C 202.95 63.923 202.918 63.278 202.906 62.415 A 64.103 64.103 0 0 1 202.9 61.5 Z M 528.9 61.5 L 528.9 33.5 A 16.326 16.326 0 0 0 528.276 28.858 A 12.043 12.043 0 0 0 523.85 22.5 C 520.483 19.967 515.867 18.7 510 18.7 C 505.244 18.7 501.258 19.546 498.044 21.238 A 16.812 16.812 0 0 0 495.1 23.2 C 491.5 26.2 489.567 30.467 489.3 36 L 495.3 36 A 19.775 19.775 0 0 1 495.953 32.442 C 496.338 31.106 496.864 29.931 497.532 28.919 A 9.825 9.825 0 0 1 499.35 26.85 C 501.211 25.259 503.737 24.311 506.929 24.008 A 25.043 25.043 0 0 1 509.3 23.9 C 512.056 23.9 514.394 24.227 516.313 24.881 A 10.986 10.986 0 0 1 519.3 26.4 C 521.182 27.784 522.282 29.994 522.602 33.032 A 18.83 18.83 0 0 1 522.7 35 A 11.792 11.792 0 0 1 522.591 36.67 C 522.368 38.22 521.805 39.297 520.9 39.9 A 8.039 8.039 0 0 1 520.165 40.289 A 9.476 9.476 0 0 1 519.8 40.45 A 28.242 28.242 0 0 1 518.999 40.77 A 24.105 24.105 0 0 1 518.65 40.9 A 6.143 6.143 0 0 1 518.39 40.987 C 518.088 41.082 517.719 41.177 517.282 41.272 A 21.915 21.915 0 0 1 517.15 41.3 A 46.175 46.175 0 0 1 516.694 41.394 C 516.26 41.481 515.881 41.549 515.558 41.599 A 15.323 15.323 0 0 1 515.55 41.6 A 21.986 21.986 0 0 1 515.181 41.653 C 514.774 41.709 514.238 41.773 513.574 41.847 A 134.888 134.888 0 0 1 513.55 41.85 A 579.78 579.78 0 0 0 512.906 41.922 C 512.38 41.981 511.923 42.033 511.535 42.078 A 182.846 182.846 0 0 0 511.35 42.1 A 35.128 35.128 0 0 1 510.866 42.153 C 510.322 42.209 509.6 42.275 508.7 42.35 A 330.827 330.827 0 0 0 507.85 42.422 C 507.05 42.491 506.4 42.55 505.9 42.6 C 500.084 43.209 495.596 44.646 492.437 46.91 A 13.392 13.392 0 0 0 486.8 58.5 A 16.678 16.678 0 0 0 487.375 63 A 12.136 12.136 0 0 0 491.25 69.1 A 14.824 14.824 0 0 0 496.756 72.008 C 498.768 72.603 501.049 72.9 503.6 72.9 A 25.481 25.481 0 0 0 512.045 71.57 C 516.572 69.989 520.224 66.999 523 62.6 C 523 64.509 523.184 66.15 523.551 67.523 A 9.724 9.724 0 0 0 524.3 69.5 A 4.234 4.234 0 0 0 526.694 71.538 C 527.523 71.846 528.526 72 529.7 72 C 531.5 72 533.167 71.733 534.7 71.2 L 534.7 66.4 A 8.503 8.503 0 0 1 533.17 66.665 A 10.425 10.425 0 0 1 532.3 66.7 A 6.078 6.078 0 0 1 531.424 66.641 C 530.738 66.541 530.215 66.312 529.855 65.955 A 1.874 1.874 0 0 1 529.85 65.95 C 529.352 65.452 529.069 64.922 529.001 64.358 A 2.215 2.215 0 0 1 529 64.35 C 528.95 63.923 528.918 63.278 528.906 62.415 A 64.103 64.103 0 0 1 528.9 61.5 Z M 399 54.6 L 392.9 54.6 A 23.065 23.065 0 0 1 390.794 60.506 C 388.081 65.569 383.55 68.1 377.2 68.1 A 20.183 20.183 0 0 1 371.959 67.459 A 13.823 13.823 0 0 1 364.15 62.15 A 22.067 22.067 0 0 1 360.362 53.316 A 30.74 30.74 0 0 1 359.8 47.3 L 399.5 47.3 L 399.5 45.5 C 399.5 37.9 397.55 31.533 393.65 26.4 A 19.027 19.027 0 0 0 380.025 18.87 A 27.922 27.922 0 0 0 376.9 18.7 A 22.647 22.647 0 0 0 367.996 20.403 A 21.384 21.384 0 0 0 359.95 26.45 A 27.124 27.124 0 0 0 354.105 38.873 A 38.33 38.33 0 0 0 353.4 46.4 C 353.4 53.862 355.21 59.949 358.829 64.661 A 23.364 23.364 0 0 0 359.85 65.9 A 21.25 21.25 0 0 0 374.71 73.113 A 29.439 29.439 0 0 0 377 73.2 A 26.191 26.191 0 0 0 383.644 72.399 A 19.464 19.464 0 0 0 391.6 68.25 A 21.632 21.632 0 0 0 397.638 59.435 A 29.453 29.453 0 0 0 399 54.6 Z M 305 0.3 L 298.9 0.3 L 298.9 71.5 L 304.6 71.5 L 304.6 61.5 A 17.992 17.992 0 0 0 307.955 67.026 A 16.506 16.506 0 0 0 311.6 70.05 C 314.8 72.017 318.6 73 323 73 A 25.137 25.137 0 0 0 330.688 71.878 A 20.149 20.149 0 0 0 340 65.65 C 343.855 61.152 345.941 55.179 346.258 47.732 A 47.893 47.893 0 0 0 346.3 45.7 C 346.3 37.433 344.217 30.833 340.05 25.9 A 20.441 20.441 0 0 0 325.073 18.555 A 28.315 28.315 0 0 0 323.3 18.5 A 22.868 22.868 0 0 0 316.843 19.382 A 19.585 19.585 0 0 0 312.15 21.45 C 308.917 23.417 306.533 26.2 305 29.8 L 305 0.3 Z M 686.7 0.3 L 680.6 0.3 L 680.6 29.7 A 18.488 18.488 0 0 0 675.378 22.643 C 673.052 20.758 670.221 19.533 666.885 18.966 A 27.368 27.368 0 0 0 662.3 18.6 A 24.022 24.022 0 0 0 654.47 19.821 A 20.011 20.011 0 0 0 645.55 26 A 25.342 25.342 0 0 0 640.412 36.227 C 639.763 38.76 639.398 41.519 639.317 44.506 A 47.664 47.664 0 0 0 639.3 45.8 A 40.5 40.5 0 0 0 640.072 53.953 C 640.755 57.274 641.89 60.222 643.478 62.798 A 23.145 23.145 0 0 0 645.55 65.65 C 649.717 70.55 655.367 73 662.5 73 A 24.159 24.159 0 0 0 668.543 72.274 A 19.517 19.517 0 0 0 673.85 70.05 A 17.124 17.124 0 0 0 680.526 62.487 A 21.455 21.455 0 0 0 681 61.4 L 681 71.5 L 686.7 71.5 L 686.7 0.3 Z M 46.8 65.7 L 6.8 65.7 L 6.8 0.3 L 0 0.3 L 0 71.5 L 46.8 71.5 L 46.8 65.7 Z M 414.8 32.4 L 414.8 20.1 L 408.9 20.1 L 408.9 71.5 L 415.1 71.5 L 415.1 50.5 A 87.339 87.339 0 0 1 415.217 45.822 C 415.389 42.628 415.75 39.954 416.3 37.8 C 417.3 34.133 419.317 31.183 422.35 28.95 C 425.383 26.717 428.833 25.6 432.7 25.6 C 432.809 25.6 432.997 25.611 433.264 25.634 A 28.191 28.191 0 0 1 433.45 25.65 A 14.334 14.334 0 0 0 433.841 25.68 C 434.047 25.693 434.233 25.7 434.4 25.7 L 434.4 19.3 A 33.349 33.349 0 0 0 429.92 19.641 C 426.877 20.095 424.371 20.998 422.4 22.35 A 16.753 16.753 0 0 0 419.102 25.396 C 418.228 26.431 417.392 27.623 416.594 28.971 A 38.977 38.977 0 0 0 414.8 32.4 Z M 74.3 18.6 A 27.363 27.363 0 0 0 66.244 19.729 A 21.371 21.371 0 0 0 56.45 26 A 25.091 25.091 0 0 0 50.735 37.203 C 50.131 39.752 49.82 42.521 49.801 45.51 A 45.919 45.919 0 0 0 49.8 45.8 A 37.999 37.999 0 0 0 50.654 54.098 C 51.674 58.656 53.606 62.506 56.45 65.65 A 21.954 21.954 0 0 0 70.584 72.783 A 30.859 30.859 0 0 0 74.3 73 A 27.876 27.876 0 0 0 82.039 71.98 A 20.874 20.874 0 0 0 92 65.75 C 96.106 61.171 98.266 55.021 98.482 47.3 A 46.516 46.516 0 0 0 98.5 46 C 98.5 38.784 96.889 32.848 93.667 28.19 A 23.311 23.311 0 0 0 91.95 26 A 21.567 21.567 0 0 0 77.658 18.781 A 30.35 30.35 0 0 0 74.3 18.6 Z M 80.425 24.92 A 18.236 18.236 0 0 0 74.2 23.9 A 21.39 21.39 0 0 0 72.692 23.952 A 15.842 15.842 0 0 0 61.1 29.85 C 58.995 32.407 57.568 35.524 56.819 39.202 A 33.098 33.098 0 0 0 56.2 45.8 A 39.828 39.828 0 0 0 56.268 48.151 C 56.403 50.441 56.742 52.551 57.284 54.482 A 20.049 20.049 0 0 0 61.05 61.9 A 15.439 15.439 0 0 0 68.538 66.97 A 19.705 19.705 0 0 0 74.4 67.8 A 21.434 21.434 0 0 0 76.031 67.739 A 15.562 15.562 0 0 0 87.4 61.9 A 18.621 18.621 0 0 0 89.321 59.024 C 90.389 57.058 91.159 54.833 91.633 52.347 A 34.458 34.458 0 0 0 92.2 45.9 A 39.479 39.479 0 0 0 92.163 44.179 C 92.059 41.8 91.736 39.607 91.194 37.599 A 20.365 20.365 0 0 0 87.3 29.85 A 15.709 15.709 0 0 0 80.425 24.92 Z M 668.542 24.556 A 19.2 19.2 0 0 0 663 23.8 C 657.733 23.8 653.517 25.783 650.35 29.75 A 18.956 18.956 0 0 0 648.62 32.328 C 647.494 34.34 646.683 36.62 646.187 39.169 A 34.187 34.187 0 0 0 645.6 45.7 C 645.6 48.941 645.96 51.863 646.679 54.468 A 20.687 20.687 0 0 0 650.35 61.9 A 15.258 15.258 0 0 0 656.928 66.832 A 17.171 17.171 0 0 0 663.1 67.9 A 21.314 21.314 0 0 0 664.852 67.829 A 15.391 15.391 0 0 0 676.05 62 A 18.535 18.535 0 0 0 678.158 58.716 C 679.919 55.226 680.8 50.921 680.8 45.8 A 32.859 32.859 0 0 0 680.361 40.323 A 24.414 24.414 0 0 0 676.3 30.2 A 14.283 14.283 0 0 0 668.542 24.556 Z M 322.4 23.8 C 327.733 23.8 331.983 25.783 335.15 29.75 C 337.992 33.31 339.558 37.983 339.85 43.771 A 40.331 40.331 0 0 1 339.9 45.8 C 339.9 52.533 338.317 57.9 335.15 61.9 C 331.983 65.9 327.767 67.9 322.5 67.9 A 17.623 17.623 0 0 1 316.358 66.871 A 15.386 15.386 0 0 1 309.6 61.9 C 306.7 58.275 305.114 53.526 304.842 47.655 A 40.16 40.16 0 0 1 304.8 45.8 C 304.8 39.067 306.383 33.717 309.55 29.75 C 312.717 25.783 317 23.8 322.4 23.8 Z M 134.445 24.999 A 17.572 17.572 0 0 0 128.7 24.1 A 19.93 19.93 0 0 0 127.168 24.158 A 14.693 14.693 0 0 0 116.45 29.7 C 113.417 33.433 111.9 38.5 111.9 44.9 A 37.308 37.308 0 0 0 111.932 46.47 C 112.166 52.007 113.655 56.484 116.4 59.9 A 14.419 14.419 0 0 0 122.738 64.54 A 16.609 16.609 0 0 0 128.5 65.5 A 20.311 20.311 0 0 0 130.189 65.431 A 14.848 14.848 0 0 0 141 59.75 A 18.223 18.223 0 0 0 142.841 56.95 C 144.68 53.509 145.6 49.26 145.6 44.2 C 145.6 41.565 145.317 39.16 144.751 36.986 A 18.622 18.622 0 0 0 141 29.55 A 14.736 14.736 0 0 0 134.445 24.999 Z M 629.4 20.1 L 623.1 20.1 L 623.1 71.5 L 629.4 71.5 L 629.4 20.1 Z M 393.2 42.2 L 359.8 42.2 A 32.538 32.538 0 0 1 361.116 36.114 C 361.919 33.645 363.017 31.466 364.409 29.577 A 20.067 20.067 0 0 1 364.85 29 A 13.1 13.1 0 0 1 372.927 24.239 A 19.96 19.96 0 0 1 376.7 23.9 A 17.348 17.348 0 0 1 382.088 24.7 A 14.192 14.192 0 0 1 388.3 28.75 C 391.233 31.983 392.867 36.467 393.2 42.2 Z M 196.7 43.5 L 196.7 51.9 A 15.997 15.997 0 0 1 195.758 57.494 A 14.021 14.021 0 0 1 191.6 63.35 C 188.2 66.25 184.067 67.7 179.2 67.7 C 176.257 67.7 173.803 67.109 171.84 65.928 A 10.127 10.127 0 0 1 170.6 65.05 C 168.467 63.283 167.4 60.9 167.4 57.9 A 11.063 11.063 0 0 1 167.631 55.579 A 7.934 7.934 0 0 1 168.75 52.85 A 8.132 8.132 0 0 1 171.151 50.502 A 10.86 10.86 0 0 1 172.75 49.65 A 39.185 39.185 0 0 1 174.804 48.823 C 175.757 48.472 176.639 48.198 177.45 48 A 31.106 31.106 0 0 1 178.995 47.668 C 179.53 47.566 180.106 47.468 180.724 47.373 A 71.973 71.973 0 0 1 182.7 47.1 C 182.981 47.044 183.381 46.988 183.9 46.931 A 36.056 36.056 0 0 1 184.2 46.9 C 186.717 46.593 188.556 46.343 189.716 46.149 A 31.761 31.761 0 0 0 190 46.1 C 191.116 45.903 192.344 45.593 193.686 45.17 A 40.458 40.458 0 0 0 193.75 45.15 A 10.924 10.924 0 0 0 194.906 44.715 C 195.687 44.366 196.285 43.961 196.7 43.5 Z M 522.7 43.5 L 522.7 51.9 A 15.997 15.997 0 0 1 521.758 57.494 A 14.021 14.021 0 0 1 517.6 63.35 C 514.2 66.25 510.067 67.7 505.2 67.7 C 502.257 67.7 499.803 67.109 497.84 65.928 A 10.127 10.127 0 0 1 496.6 65.05 C 494.467 63.283 493.4 60.9 493.4 57.9 A 11.063 11.063 0 0 1 493.631 55.579 A 7.934 7.934 0 0 1 494.75 52.85 A 8.132 8.132 0 0 1 497.151 50.502 A 10.86 10.86 0 0 1 498.75 49.65 A 39.185 39.185 0 0 1 500.804 48.823 C 501.757 48.472 502.639 48.198 503.45 48 A 31.106 31.106 0 0 1 504.995 47.668 C 505.53 47.566 506.106 47.468 506.724 47.373 A 71.973 71.973 0 0 1 508.7 47.1 C 508.981 47.044 509.381 46.988 509.9 46.931 A 36.056 36.056 0 0 1 510.2 46.9 C 512.717 46.593 514.556 46.343 515.716 46.149 A 31.761 31.761 0 0 0 516 46.1 C 517.116 45.903 518.344 45.593 519.686 45.17 A 40.458 40.458 0 0 0 519.75 45.15 A 10.924 10.924 0 0 0 520.906 44.715 C 521.687 44.366 522.285 43.961 522.7 43.5 Z M 607.3 61.2 L 599.1 61.2 L 599.1 71.5 L 607.3 71.5 L 607.3 61.2 Z M 629.4 0 L 623.1 0 L 623.1 10.3 L 629.4 10.3 L 629.4 0 Z" vector-effect="non-scaling-stroke"/></g></svg>